<?xml version="1.0"?>
<svg width="640" height="480" xmlns="http://www.w3.org/2000/svg" xmlns:svg="http://www.w3.org/2000/svg">
 <!-- Created with SVG-edit - https://github.com/SVG-Edit/svgedit-->
 <g class="layer">
  <title>Layer 1</title>
  <ellipse cx="308.8713" cy="239.91453" fill="#ffffff" id="svg_1" rx="49.52504" ry="208.21164" stroke="#000000" stroke-width="3" transform="matrix(0.756099 -0.655775 0.654457 0.757621 -81.6802 261.226)"/>
  <ellipse cx="315.29948" cy="239.38906" fill="#ffffff" id="svg_2" rx="247.46688" ry="49.92526" stroke="#000000" stroke-width="3" transform="matrix(0.999996 0.00300365 -0.00299762 1.00201 0.719013 -0.903192)"/>
  <rect fill="#7c0303" height="471.948144" id="svg_18" opacity="0.7" stroke="#000000" stroke-dasharray="null" stroke-linecap="null" stroke-linejoin="null" stroke-width="0" width="73" x="53.5" y="3.549834"/>
  <ellipse cx="311.5" cy="240.525919" fill="#ffffff" id="svg_3" rx="46" ry="229.962004" stroke="#000000" stroke-width="3"/>
  <rect fill="#196801" height="472.950167" id="svg_22" opacity="0.7" stroke="#000000" stroke-dasharray="null" stroke-linecap="null" stroke-linejoin="null" stroke-width="0" width="27" x="137.5" y="3.549824"/>
  <ellipse cx="312.7079" cy="233.97641" fill="#ffffff" id="svg_4" rx="218.50204" ry="46.99675" stroke="#000000" stroke-width="3" transform="matrix(0.705437 -0.710199 0.708772 0.706858 -73.7236 291.187)"/>
  <ellipse cx="308.5" cy="238.020886" fill="#aad4ff" id="svg_5" rx="22" ry="21.042275" stroke="#000000" stroke-dasharray="null" stroke-linecap="null" stroke-linejoin="null" stroke-width="2"/>
  <ellipse cx="175.5" cy="82.708858" fill="#ffffff" id="svg_6" rx="8" ry="7.014092" stroke="#000000" stroke-dasharray="null" stroke-linecap="null" stroke-linejoin="null" stroke-width="5"/>
  <ellipse cx="182" cy="316.678914" fill="#ffffff" id="svg_7" rx="7.5" ry="7.515098" stroke="#000000" stroke-dasharray="null" stroke-linecap="null" stroke-linejoin="null" stroke-width="5"/>
  <ellipse cx="344" cy="81.706845" fill="#ffffff" id="svg_8" rx="7.5" ry="7.014092" stroke="#000000" stroke-dasharray="null" stroke-linecap="null" stroke-linejoin="null" stroke-width="5"/>
  <ellipse cx="408.5" cy="288.121541" fill="#ffffff" id="svg_9" rx="7.5" ry="7.515098" stroke="#000000" stroke-dasharray="null" stroke-linecap="null" stroke-linejoin="null" stroke-width="5"/>
  <text fill="#000000" font-family="serif" font-size="24" id="svg_11" stroke="#000000" stroke-dasharray="null" stroke-linecap="null" stroke-linejoin="null" stroke-width="0" text-anchor="middle" transform="matrix(9.95013 0 0 1.58696 -530.942 -277.04)" x="59.5" xml:space="preserve" y="464.868595"/>
  <text fill="#000000" font-family="serif" font-size="134" id="svg_14" stroke="#000000" stroke-dasharray="null" stroke-linecap="null" stroke-linejoin="null" stroke-width="0" text-anchor="middle" transform="matrix(1 0 0 0.795337 0 27.0063)" x="538.51563" xml:space="preserve" y="92.213357">J</text>
  <text fill="#000000" font-family="serif" font-size="134" id="svg_17" stroke="#000000" stroke-dasharray="null" stroke-linecap="null" stroke-linejoin="null" stroke-width="0" text-anchor="middle" transform="matrix(0.64583 0 0 0.769972 205.62 109.358)" x="518.545468" xml:space="preserve" y="442.242598">C</text>
  <rect fill="#003f7f" height="471.948164" id="svg_20" opacity="0.7" stroke="#000000" stroke-dasharray="null" stroke-linecap="null" stroke-linejoin="null" stroke-width="0" width="43" x="2.5" y="3.549824"/>
  <rect fill="#003f7f" height="470.946151" id="svg_21" opacity="0.7" stroke="#000000" stroke-dasharray="null" stroke-linecap="null" stroke-linejoin="null" stroke-width="0" width="46" x="591.5" y="4.551837"/>
  <text fill="#000000" font-family="Serif" font-size="8" id="svg_16" opacity="0.5" stroke="#000000" stroke-dasharray="null" stroke-linecap="null" stroke-linejoin="null" stroke-width="0" text-anchor="middle" transform="matrix(2.17737 0 0 1.35623 -1358.8 -136.292)" x="871.54902" xml:space="preserve" y="446.67177">Luis Jezrael Hoyos Campa</text>
  <text fill="#000000" font-family="serif" font-size="134" id="svg_15" stroke="#000000" stroke-dasharray="null" stroke-linecap="null" stroke-linejoin="null" stroke-width="0" text-anchor="middle" transform="matrix(0.595503 0 0 0.827863 71.0637 75.0343)" x="44.419778" xml:space="preserve" y="442.072682">H</text>
  <text fill="#000000" font-family="serif" font-size="134" id="svg_13" stroke="#000000" stroke-dasharray="null" stroke-linecap="null" stroke-linejoin="null" stroke-width="0" text-anchor="middle" transform="matrix(0.715404 0 0 0.795337 32.2515 22.0063)" x="90.5" xml:space="preserve" y="98.5">L</text>
 </g>
</svg>